<?xml version="1.0" encoding="UTF-8" standalone="no"?>
<!DOCTYPE svg PUBLIC "-//W3C//DTD SVG 1.1//EN" "http://www.w3.org/Graphics/SVG/1.1/DTD/svg11.dtd">
<svg width="100%" height="100%" viewBox="0 0 36 38" version="1.1" xmlns="http://www.w3.org/2000/svg" xmlns:xlink="http://www.w3.org/1999/xlink" xml:space="preserve" xmlns:serif="http://www.serif.com/" style="fill-rule:evenodd;clip-rule:evenodd;stroke-linejoin:round;stroke-miterlimit:2;">
    <g transform="matrix(1,0,0,1,-1007.83,-525.676)">
        <g transform="matrix(1.14418,0,0,3.81429,-223.246,-3089.74)">
            <g transform="matrix(1.71303,0,0,0.513864,1070.8,946.835)">
                <path d="M18,4L17,4L17,3C17,2.451 16.549,2 16,2C15.451,2 15,2.451 15,3L15,4L9,4L9,3C9,2.451 8.549,2 8,2C7.451,2 7,2.451 7,3L7,4L6,4C4.354,4 3,5.354 3,7L3,18C3,19.646 4.354,21 6,21L18,21C19.646,21 21,19.646 21,18L21,7C21,5.354 19.646,4 18,4ZM8,18C7.451,18 7,17.549 7,17C7,16.451 7.451,16 8,16C8.549,16 9,16.451 9,17C9,17.549 8.549,18 8,18ZM8,14C7.451,14 7,13.549 7,13C7,12.451 7.451,12 8,12C8.549,12 9,12.451 9,13C9,13.549 8.549,14 8,14ZM12,18C11.451,18 11,17.549 11,17C11,16.451 11.451,16 12,16C12.549,16 13,16.451 13,17C13,17.549 12.549,18 12,18ZM12,14C11.451,14 11,13.549 11,13C11,12.451 11.451,12 12,12C12.549,12 13,12.451 13,13C13,13.549 12.549,14 12,14ZM16,14C15.451,14 15,13.549 15,13C15,12.451 15.451,12 16,12C16.549,12 17,12.451 17,13C17,13.549 16.549,14 16,14ZM19,10L5,10L5,7C5,6.451 5.451,6 6,6L7,6L7,7C7,7.549 7.451,8 8,8C8.549,8 9,7.549 9,7L9,6L15,6L15,7C15,7.549 15.451,8 16,8C16.549,8 17,7.549 17,7L17,6L18,6C18.549,6 19,6.451 19,7L19,10Z" style="fill:rgb(237,106,90);fill-rule:nonzero;"/>
            </g>
        </g>
    </g>
</svg>
