<?xml version="1.0" encoding="UTF-8" standalone="no"?>
<!DOCTYPE svg PUBLIC "-//W3C//DTD SVG 1.1//EN" "http://www.w3.org/Graphics/SVG/1.1/DTD/svg11.dtd">
<svg width="100%" height="100%" viewBox="0 0 59 59" version="1.1" xmlns="http://www.w3.org/2000/svg" xmlns:xlink="http://www.w3.org/1999/xlink" xml:space="preserve" xmlns:serif="http://www.serif.com/" style="fill-rule:evenodd;clip-rule:evenodd;stroke-linejoin:round;stroke-miterlimit:2;">
    <g transform="matrix(1,0,0,1,-834.73,-515.109)">
        <g transform="matrix(1.14418,0,0,3.81429,-223.246,-3089.74)">
            <g transform="matrix(0.813472,0,0,0.24402,568.674,70.4935)">
                <g transform="matrix(1.57092,0,0,1.57092,431.323,3577.84)">
                    <path d="M24,4C12.95,4 4,12.95 4,24C4,35.04 12.95,44 24,44C35.04,44 44,35.04 44,24C44,12.95 35.04,4 24,4Z" style="fill:rgb(237,106,90);fill-rule:nonzero;"/>
                </g>
                <g transform="matrix(0.145591,0,0,0.145591,447.92,3215.53)">
                    <g transform="matrix(0.566246,0,0,0.566246,0,2602.59)">
                        <path d="M430.4,147L362.9,147L322.5,106.2C322.5,106.2 322.3,106 322.2,106L322,105.8C316,99.8 307.9,96 298.7,96L214.7,96C204.9,96 196.2,100.2 190.1,106.9L190.1,107L150.6,147L81.6,147C63,147 48,161.6 48,180.2L48,382.3C48,400.9 63,416 81.6,416L430.4,416C448.9,416 464,400.9 464,382.3L464,180.2C464,161.6 448.9,147 430.4,147ZM256,365.5C205.1,365.5 163.6,323.9 163.6,272.9C163.6,221.8 205.1,180.3 256,180.3C307,180.3 348.4,221.8 348.4,272.9C348.4,323.9 307,365.5 256,365.5ZM424.1,200.5C416.4,200.5 410.1,194.2 410.1,186.4C410.1,178.6 416.4,172.3 424.1,172.3C431.8,172.3 438.1,178.6 438.1,186.4C438.1,194.2 431.8,200.5 424.1,200.5Z" style="fill:white;fill-rule:nonzero;"/>
                    </g>
                    <g transform="matrix(0.566246,0,0,0.566246,0,2602.59)">
                        <path d="M256,202.9C217.4,202.9 186.2,234.2 186.2,272.9C186.2,311.5 217.4,342.9 256,342.9C294.5,342.9 325.8,311.6 325.8,272.9C325.8,234.2 294.5,202.9 256,202.9Z" style="fill:white;fill-rule:nonzero;"/>
                    </g>
                </g>
            </g>
        </g>
    </g>
</svg>
