<?xml version="1.0" encoding="UTF-8" standalone="no"?>
<!DOCTYPE svg PUBLIC "-//W3C//DTD SVG 1.1//EN" "http://www.w3.org/Graphics/SVG/1.1/DTD/svg11.dtd">
<svg width="100%" height="100%" viewBox="0 0 16 16" version="1.1" xmlns="http://www.w3.org/2000/svg" xmlns:xlink="http://www.w3.org/1999/xlink" xml:space="preserve" xmlns:serif="http://www.serif.com/" style="fill-rule:evenodd;clip-rule:evenodd;stroke-linejoin:round;stroke-miterlimit:2;">
    <g transform="matrix(1,0,0,1,-505.014,-543.03)">
        <g transform="matrix(1.14418,0,0,3.81429,-223.246,-3089.74)">
            <g id="edit" transform="matrix(0.691913,0,0,0.207555,635.105,952.038)">
                <path d="M2,20C2,21.1 2.9,22 4,22L6.6,22L2,17.4L2,20Z" style="fill:rgb(11,57,84);fill-rule:nonzero;"/>
                <path d="M21.6,5.6L18.4,2.4C17.6,1.6 16.4,1.6 15.6,2.4L15.4,2.6C15,3 15,3.6 15.4,4L20,8.6C20.4,9 21,9 21.4,8.6L21.6,8.4C22.4,7.6 22.4,6.4 21.6,5.6Z" style="fill:rgb(11,57,84);fill-rule:nonzero;"/>
                <path d="M14,5.4C13.6,5 13,5 12.6,5.4L3.5,14.5C3,15 3,15.6 3.4,16L8,20.6C8.4,21 9,21 9.4,20.6L18.5,11.5C18.9,11.1 18.9,10.5 18.5,10.1L14,5.4Z" style="fill:rgb(11,57,84);fill-rule:nonzero;"/>
            </g>
        </g>
    </g>
</svg>
