<?xml version="1.0" encoding="UTF-8" standalone="no"?>
<!DOCTYPE svg PUBLIC "-//W3C//DTD SVG 1.1//EN" "http://www.w3.org/Graphics/SVG/1.1/DTD/svg11.dtd">
<svg width="100%" height="100%" viewBox="0 0 1467 445" version="1.1" xmlns="http://www.w3.org/2000/svg" xmlns:xlink="http://www.w3.org/1999/xlink" xml:space="preserve" xmlns:serif="http://www.serif.com/" style="fill-rule:evenodd;clip-rule:evenodd;stroke-linejoin:round;stroke-miterlimit:2;">
    <g transform="matrix(1,0,0,1,-214,-2763)">
        <g transform="matrix(1,0,0,0.846175,-0.199051,424.178)">
            <g transform="matrix(2.08043,0,0,2.45862,-446.425,-4557.37)">
                <path d="M889.462,3036.2L889.462,3036.2C910.645,3036.2 927.818,3053.37 927.818,3074.56C927.818,3092.09 927.818,3109.02 927.818,3109.02C927.818,3123.2 928.793,3133.04 930.744,3138.55C932.695,3144.07 935.829,3148.35 940.147,3151.41C944.466,3154.47 949.783,3155.99 956.099,3155.99C962.415,3155.99 967.779,3154.49 972.19,3151.48C976.602,3148.47 979.875,3144.04 982.011,3138.21C983.59,3133.85 984.38,3124.54 984.38,3110.27L984.38,3036.2L984.381,3036.2C1005.33,3036.2 1022.32,3053.19 1022.32,3074.14C1022.32,3087.96 1022.32,3100.27 1022.32,3100.27C1022.32,3126.67 1020.23,3144.74 1016.07,3154.47C1010.97,3166.32 1003.47,3175.43 993.552,3181.77C983.638,3188.12 971.038,3191.29 955.751,3191.29C939.167,3191.29 925.756,3187.59 915.519,3180.18C905.281,3172.76 898.078,3162.43 893.909,3149.18C890.944,3140.01 889.462,3123.34 889.462,3099.16L889.462,3036.2ZM835.945,2977.83L835.946,2977.83C856.899,2977.83 873.884,2994.82 873.884,3015.77L873.884,3187.4L835.945,3187.4L835.945,3171.42C828.541,3178.46 821.115,3183.53 813.666,3186.64C806.216,3189.74 798.142,3191.29 789.443,3191.29C769.918,3191.29 753.029,3183.72 738.778,3168.57C724.527,3153.42 717.401,3134.59 717.401,3112.08C717.401,3088.73 724.296,3069.6 738.084,3054.68C751.873,3039.77 768.623,3032.31 788.334,3032.31C797.402,3032.31 805.915,3034.02 813.873,3037.45C821.831,3040.88 829.189,3046.02 835.945,3052.88L835.945,2977.83ZM564.374,3036.2C588.96,3036.2 608.891,3056.13 608.891,3080.72L608.891,3109.02C608.891,3123.2 609.867,3133.04 611.817,3138.55C613.768,3144.07 616.902,3148.35 621.221,3151.41C625.539,3154.47 630.856,3155.99 637.172,3155.99C643.488,3155.99 648.852,3154.49 653.263,3151.48C657.675,3148.47 660.949,3144.04 663.084,3138.21C664.663,3133.85 665.453,3124.54 665.453,3110.27L665.453,3074.14C665.453,3053.19 682.438,3036.2 703.391,3036.2C703.392,3036.2 703.392,3036.2 703.392,3036.2L703.392,3100.27C703.392,3126.67 701.308,3144.74 697.139,3154.47C692.043,3166.32 684.538,3175.43 674.625,3181.77C664.712,3188.12 652.112,3191.29 636.825,3191.29C620.241,3191.29 606.83,3187.59 596.592,3180.18C586.355,3172.76 579.151,3162.43 574.982,3149.18C572.017,3140.01 570.535,3123.34 570.535,3099.16L570.535,3081.16C570.535,3077.65 567.686,3074.8 564.172,3074.8L563.687,3074.8C560.173,3074.8 557.324,3077.65 557.324,3081.16C557.324,3088.71 557.324,3100.27 557.324,3100.27C557.324,3126.67 555.24,3144.74 551.07,3154.47C545.975,3166.32 538.47,3175.43 528.557,3181.77C518.644,3188.12 506.043,3191.29 490.757,3191.29C474.173,3191.29 460.762,3187.59 450.524,3180.18C440.286,3172.76 433.083,3162.43 428.914,3149.18C425.949,3140.01 424.467,3123.34 424.467,3099.16L424.467,3074.56C424.467,3053.37 441.639,3036.2 462.823,3036.2C462.823,3036.2 462.823,3036.2 462.823,3036.2L462.823,3109.02C462.823,3123.2 463.798,3133.04 465.749,3138.55C467.7,3144.07 470.834,3148.35 475.153,3151.41C479.471,3154.47 484.788,3155.99 491.104,3155.99C497.42,3155.99 502.784,3154.49 507.195,3151.48C511.607,3148.47 514.881,3144.04 517.016,3138.21C518.595,3133.85 519.385,3124.54 519.385,3110.27L519.385,3080.72C519.385,3056.13 539.316,3036.2 563.902,3036.2L564.374,3036.2ZM317.542,2982.97L464.217,2982.97L464.217,3021.33L410.127,3021.33L410.127,3187.4L370.659,3187.4L370.659,3021.33L317.542,3021.33L317.542,2982.97ZM796.062,3067.33C784.335,3067.33 774.593,3071.48 766.836,3079.77C759.08,3088.06 755.202,3098.69 755.202,3111.66C755.202,3124.72 759.149,3135.47 767.044,3143.9C774.938,3152.34 784.657,3156.55 796.199,3156.55C808.111,3156.55 817.992,3152.4 825.84,3144.11C833.688,3135.82 837.612,3124.96 837.612,3111.52C837.612,3098.37 833.688,3087.71 825.84,3079.56C817.992,3071.41 808.066,3067.33 796.062,3067.33Z" style="fill:rgb(237,106,90);fill-rule:nonzero;"/>
            </g>
        </g>
    </g>
</svg>
