<?xml version="1.0" encoding="UTF-8" standalone="no"?>
<!DOCTYPE svg PUBLIC "-//W3C//DTD SVG 1.1//EN" "http://www.w3.org/Graphics/SVG/1.1/DTD/svg11.dtd">
<svg width="100%" height="100%" viewBox="0 0 119 56" version="1.1" xmlns="http://www.w3.org/2000/svg" xmlns:xlink="http://www.w3.org/1999/xlink" xml:space="preserve" xmlns:serif="http://www.serif.com/" style="fill-rule:evenodd;clip-rule:evenodd;stroke-linejoin:round;stroke-miterlimit:2;">
    <g transform="matrix(1,0,0,1,-60,-518.249)">
        <g transform="matrix(1.14418,0,0,3.81429,-223.246,-3089.74)">
            <g transform="matrix(0.507218,0,0,0.152152,24.3928,872.512)">
                <g transform="matrix(134.285,0,0,134.285,438.886,576.424)">
                    <path d="M0.008,-0.6L0.123,-0.6L0.123,-0L0.233,-0L0.233,-0.532C0.233,-0.55 0.24,-0.567 0.253,-0.58C0.266,-0.593 0.283,-0.6 0.301,-0.6L0.348,-0.6L0.348,-0.7L0.008,-0.7L0.008,-0.6Z" style="fill:rgb(237,106,90);fill-rule:nonzero;"/>
                </g>
                <g transform="matrix(134.285,0,0,134.285,486.691,576.424)">
                    <path d="M0.035,-0.7L0.035,-0.167C0.035,-0.055 0.091,0.009 0.199,0.009C0.307,0.009 0.363,-0.055 0.363,-0.167L0.363,-0.596C0.363,-0.624 0.352,-0.65 0.333,-0.67C0.313,-0.689 0.287,-0.7 0.259,-0.7L0.259,-0.7L0.259,-0.16C0.259,-0.11 0.237,-0.092 0.202,-0.092C0.167,-0.092 0.145,-0.11 0.145,-0.16L0.145,-0.59C0.145,-0.651 0.096,-0.7 0.035,-0.7L0.035,-0.7Z" style="fill:rgb(237,106,90);fill-rule:nonzero;"/>
                </g>
                <g transform="matrix(134.285,0,0,134.285,540.137,576.424)">
                    <path d="M0.04,-0L0.214,-0C0.324,-0 0.378,-0.061 0.378,-0.173L0.378,-0.527C0.378,-0.639 0.324,-0.7 0.214,-0.7L0.04,-0.7L0.04,-0ZM0.212,-0.6C0.247,-0.6 0.268,-0.582 0.268,-0.532L0.268,-0.168C0.268,-0.118 0.247,-0.1 0.212,-0.1L0.15,-0.1L0.15,-0.538C0.15,-0.554 0.156,-0.57 0.168,-0.582C0.18,-0.594 0.196,-0.6 0.212,-0.6L0.212,-0.6Z" style="fill:rgb(237,106,90);fill-rule:nonzero;"/>
                </g>
                <g transform="matrix(134.285,0,0,134.285,594.925,576.424)">
                    <path d="M0.035,-0.7L0.035,-0.167C0.035,-0.055 0.091,0.009 0.199,0.009C0.307,0.009 0.363,-0.055 0.363,-0.167L0.363,-0.596C0.363,-0.624 0.352,-0.65 0.333,-0.67C0.313,-0.689 0.287,-0.7 0.259,-0.7L0.259,-0.7L0.259,-0.16C0.259,-0.11 0.237,-0.092 0.202,-0.092C0.167,-0.092 0.145,-0.11 0.145,-0.16L0.145,-0.596C0.145,-0.653 0.098,-0.7 0.041,-0.7L0.035,-0.7Z" style="fill:rgb(237,106,90);fill-rule:nonzero;"/>
                </g>
            </g>
        </g>
    </g>
</svg>
