<?xml version="1.0" encoding="UTF-8" standalone="no"?>
<!DOCTYPE svg PUBLIC "-//W3C//DTD SVG 1.1//EN" "http://www.w3.org/Graphics/SVG/1.1/DTD/svg11.dtd">
<svg width="100%" height="100%" viewBox="0 0 117 78" version="1.1" xmlns="http://www.w3.org/2000/svg" xmlns:xlink="http://www.w3.org/1999/xlink" xml:space="preserve" xmlns:serif="http://www.serif.com/" style="fill-rule:evenodd;clip-rule:evenodd;stroke-linejoin:round;stroke-miterlimit:2;">
    <g transform="matrix(1,0,0,1,-1153.46,-532.796)">
        <g transform="matrix(6.47702,0,0,6.47702,-4578.71,-21735.2)">
            <g id="🔹-Icon-Color" transform="matrix(1,0,0,1,882,3432)">
                <path d="M4,18L20,18C20.55,18 21,17.55 21,17C21,16.45 20.55,16 20,16L4,16C3.45,16 3,16.45 3,17C3,17.55 3.45,18 4,18ZM4,13L20,13C20.55,13 21,12.55 21,12C21,11.45 20.55,11 20,11L4,11C3.45,11 3,11.45 3,12C3,12.55 3.45,13 4,13ZM3,7C3,7.55 3.45,8 4,8L20,8C20.55,8 21,7.55 21,7C21,6.45 20.55,6 20,6L4,6C3.45,6 3,6.45 3,7Z" style="fill:rgb(237,106,90);"/>
            </g>
        </g>
    </g>
</svg>
