<?xml version="1.0" encoding="UTF-8" standalone="no"?>
<!DOCTYPE svg PUBLIC "-//W3C//DTD SVG 1.1//EN" "http://www.w3.org/Graphics/SVG/1.1/DTD/svg11.dtd">
<svg width="100%" height="100%" viewBox="0 0 37 40" version="1.1" xmlns="http://www.w3.org/2000/svg" xmlns:xlink="http://www.w3.org/1999/xlink" xml:space="preserve" xmlns:serif="http://www.serif.com/" style="fill-rule:evenodd;clip-rule:evenodd;stroke-linejoin:round;stroke-miterlimit:2;">
    <g transform="matrix(1,0,0,1,-303.824,-529.985)">
        <g transform="matrix(1.14418,0,0,3.81429,-223.246,-3089.74)">
            <g transform="matrix(1.58711,0,0,0.476091,457.539,948.492)">
                <g id="notification">
                    <path d="M13.7,20L10.2,20C9.5,20 8.9,20.8 9.3,21.5C9.9,22.4 10.9,23 12,23C13.1,23 14.1,22.4 14.6,21.5C15,20.8 14.5,20 13.7,20Z" style="fill:rgb(237,106,90);fill-rule:nonzero;"/>
                    <path d="M21.8,16.7L21.4,16.2C19.8,14.1 19,11.6 19,9L19,8.3C19,4.7 16.4,1.5 12.8,1.1C8.6,0.6 5,3.9 5,8L5,9C5,11.6 4.2,14.1 2.6,16.2L2.2,16.7C2,16.9 1.9,17.3 2,17.5C2.3,18.4 3.1,19 4,19L20,19C20.9,19 21.7,18.4 21.9,17.5C22,17.2 21.9,16.9 21.8,16.7Z" style="fill:rgb(237,106,90);fill-rule:nonzero;"/>
                </g>
            </g>
        </g>
    </g>
</svg>
