<?xml version="1.0" encoding="UTF-8" standalone="no"?>
<!DOCTYPE svg PUBLIC "-//W3C//DTD SVG 1.1//EN" "http://www.w3.org/Graphics/SVG/1.1/DTD/svg11.dtd">
<svg width="100%" height="100%" viewBox="0 0 75 75" version="1.1" xmlns="http://www.w3.org/2000/svg" xmlns:xlink="http://www.w3.org/1999/xlink" xml:space="preserve" xmlns:serif="http://www.serif.com/" style="fill-rule:evenodd;clip-rule:evenodd;stroke-linejoin:round;stroke-miterlimit:2;">
    <g transform="matrix(1,0,0,1,-572.736,-506.341)">
        <g transform="matrix(1.14418,0,0,3.81429,-223.246,-3089.74)">
            <g transform="matrix(0.677189,0,0,0.203139,694.509,942.239)">
                <path d="M42.675,2.725L47.225,2.725L47.225,7.275L51.775,7.275L51.775,2.725L60.875,2.725L60.875,7.275L56.325,7.275L56.325,11.825L60.875,11.825L60.875,16.375L56.325,16.375L56.325,20.925L51.775,20.925L51.775,11.825L47.225,11.825L47.225,20.925L42.675,20.925L42.675,16.375L38.125,16.375L38.125,11.825L42.675,11.825L42.675,2.725Z" style="fill:rgb(237,106,90);"/>
                <path d="M1.725,2.725L1.725,34.575L33.575,34.575L33.575,2.725L1.725,2.725ZM29.025,30.025L6.275,30.025L6.275,7.275L29.025,7.275L29.025,30.025Z" style="fill:rgb(237,106,90);"/>
                <path d="M65.425,2.725L65.425,34.575L97.276,34.575L97.276,2.725L65.425,2.725ZM92.725,30.025L69.975,30.025L69.975,7.275L92.725,7.275L92.725,30.025Z" style="fill:rgb(237,106,90);"/>
                <rect x="10.825" y="11.825" width="13.65" height="13.65" style="fill:rgb(237,106,90);"/>
                <rect x="74.525" y="11.825" width="13.649" height="13.65" style="fill:rgb(237,106,90);"/>
                <rect x="47.225" y="20.925" width="4.55" height="4.55" style="fill:rgb(237,106,90);"/>
                <path d="M56.325,20.925L60.875,20.925L60.875,39.125L56.325,39.125L56.325,43.675L47.225,43.675L47.225,48.225L51.775,48.225L51.775,57.325L42.674,57.325L42.674,52.775L29.025,52.775L29.025,48.225L42.674,48.225L42.674,43.675L24.474,43.675L24.474,52.776L29.024,52.776L29.024,57.326L38.124,57.326L38.124,61.876L24.474,61.876L24.474,57.326L19.924,57.326L19.924,61.876L15.374,61.876L15.374,52.776L19.924,52.776L19.924,48.226L10.824,48.226L10.824,43.676L6.274,43.676L6.274,48.226L10.824,48.226L10.824,52.776L1.724,52.776L1.724,39.126L15.374,39.126L15.374,43.676L19.924,43.676L19.924,39.126L38.124,39.126L38.124,30.026L42.674,30.026L42.674,34.576L47.224,34.576L47.224,39.126L51.774,39.126L51.774,34.576L56.324,34.576C56.325,30.025 56.325,25.475 56.325,20.925Z" style="fill:rgb(237,106,90);"/>
                <rect x="47.225" y="30.025" width="4.55" height="4.55" style="fill:rgb(237,106,90);"/>
                <path d="M60.875,39.125L69.975,39.125L69.975,43.675L74.526,43.675L74.526,48.225L65.425,48.225L65.425,43.675L60.875,43.675L60.875,39.125Z" style="fill:rgb(237,106,90);"/>
                <rect x="83.625" y="39.125" width="4.55" height="4.55" style="fill:rgb(237,106,90);"/>
                <path d="M92.725,43.675L97.276,43.675L97.276,52.776L92.725,52.776L92.725,57.326L88.175,57.326L88.175,52.776L83.625,52.776L83.625,48.226L92.725,48.226L92.725,43.675Z" style="fill:rgb(237,106,90);"/>
                <rect x="56.325" y="48.225" width="4.55" height="4.55" style="fill:rgb(237,106,90);"/>
                <rect x="74.525" y="48.225" width="4.55" height="9.1" style="fill:rgb(237,106,90);"/>
                <path d="M65.425,52.775L69.975,52.775L69.975,57.325L74.526,57.325L74.526,61.875L79.076,61.875L79.076,75.525L74.526,75.525L74.526,66.424L69.975,66.424L69.975,61.874L65.425,61.874L65.425,52.775Z" style="fill:rgb(237,106,90);"/>
                <rect x="1.725" y="57.325" width="4.55" height="4.55" style="fill:rgb(237,106,90);"/>
                <rect x="56.325" y="57.325" width="4.55" height="4.55" style="fill:rgb(237,106,90);"/>
                <rect x="79.075" y="57.325" width="4.55" height="4.55" style="fill:rgb(237,106,90);"/>
                <path d="M38.125,61.875L42.675,61.875L42.675,70.975L47.225,70.975L47.225,75.526L42.675,75.526L42.675,80.076L38.125,80.076L38.125,61.875Z" style="fill:rgb(237,106,90);"/>
                <path d="M51.775,61.875L56.325,61.875L56.325,70.975L60.875,70.975L60.875,61.875L65.425,61.875L65.425,66.425L69.975,66.425L69.975,70.975L65.425,70.975L65.425,75.526L74.526,75.526L74.526,80.076L79.076,80.076L79.076,75.526L83.626,75.526L83.626,84.626L79.076,84.626L79.076,89.176L83.626,89.176L83.626,98.277L79.076,98.277L79.076,93.726L69.975,93.726L69.975,98.277L65.425,98.277L65.425,89.176L74.526,89.176L74.526,84.626L65.425,84.626L65.425,80.076L60.875,80.076L60.875,75.526L56.325,75.526L56.325,80.076L51.775,80.076L51.775,93.725L42.674,93.725L42.674,98.276L38.124,98.276L38.124,84.626L42.674,84.626L42.674,89.176L47.224,89.176L47.224,84.626L42.674,84.626L42.674,80.076L47.224,80.076L47.224,75.526L51.774,75.526L51.774,70.975L47.224,70.975L47.224,66.425L51.774,66.425C51.775,64.908 51.775,63.392 51.775,61.875Z" style="fill:rgb(237,106,90);"/>
                <path d="M88.175,61.875L97.276,61.875L97.276,80.075L92.725,80.075L92.725,84.625L88.175,84.625L88.175,75.525L92.725,75.525L92.725,70.974L83.625,70.974L83.625,66.424L88.175,66.424L88.175,61.875Z" style="fill:rgb(237,106,90);"/>
                <path d="M1.725,66.425L1.725,98.276L33.575,98.276L33.575,66.425L1.725,66.425ZM29.025,93.725L6.275,93.725L6.275,70.975L29.025,70.975L29.025,93.725Z" style="fill:rgb(237,106,90);"/>
                <rect x="10.825" y="75.525" width="13.65" height="13.649" style="fill:rgb(237,106,90);"/>
                <rect x="56.325" y="84.625" width="4.55" height="4.55" style="fill:rgb(237,106,90);"/>
                <rect x="83.625" y="84.625" width="4.55" height="4.55" style="fill:rgb(237,106,90);"/>
                <rect x="92.725" y="84.625" width="4.551" height="4.55" style="fill:rgb(237,106,90);"/>
                <path d="M88.175,89.175L92.725,89.175L92.725,93.725L97.276,93.725L97.276,98.276L88.175,98.276L88.175,89.175Z" style="fill:rgb(237,106,90);"/>
                <rect x="56.325" y="93.725" width="4.55" height="4.551" style="fill:rgb(237,106,90);"/>
            </g>
        </g>
    </g>
</svg>
