<?xml version="1.0" encoding="UTF-8" standalone="no"?>
<!DOCTYPE svg PUBLIC "-//W3C//DTD SVG 1.1//EN" "http://www.w3.org/Graphics/SVG/1.1/DTD/svg11.dtd">
<svg width="100%" height="100%" viewBox="0 0 16 18" version="1.1" xmlns="http://www.w3.org/2000/svg" xmlns:xlink="http://www.w3.org/1999/xlink" xml:space="preserve" xmlns:serif="http://www.serif.com/" style="fill-rule:evenodd;clip-rule:evenodd;stroke-linejoin:round;stroke-miterlimit:2;">
    <g transform="matrix(1,0,0,1,-479.276,-542.415)">
        <g transform="matrix(1.14418,0,0,3.81429,-223.246,-3089.74)">
            <g transform="matrix(0.537563,0,0,0.161255,398.324,885.633)">
                <g id="XMLID_237_" transform="matrix(1,0,0,1,398.198,411.119)">
                    <path d="M6,12L6,27C6,28.654 7.346,30 9,30L23,30C24.654,30 26,28.654 26,27L26,12L6,12ZM12,25C12,25.552 11.552,26 11,26C10.448,26 10,25.552 10,25L10,16C10,15.448 10.448,15 11,15C11.552,15 12,15.448 12,16L12,25ZM17,25C17,25.552 16.552,26 16,26C15.448,26 15,25.552 15,25L15,16C15,15.448 15.448,15 16,15C16.552,15 17,15.448 17,16L17,25ZM22,25C22,25.552 21.552,26 21,26C20.448,26 20,25.552 20,25L20,16C20,15.448 20.448,15 21,15C21.552,15 22,15.448 22,16L22,25Z" style="fill:rgb(237,106,90);fill-rule:nonzero;"/>
                </g>
                <g id="XMLID_243_" transform="matrix(1,0,0,1,398.198,411.119)">
                    <path d="M27,6L21,6L21,5C21,3.346 19.654,2 18,2L14,2C12.346,2 11,3.346 11,5L11,6L5,6C3.897,6 3,6.897 3,8L3,9C3,9.552 3.448,10 4,10L28,10C28.552,10 29,9.552 29,9L29,8C29,6.897 28.103,6 27,6ZM13,5C13,4.449 13.449,4 14,4L18,4C18.551,4 19,4.449 19,5L19,6L13,6L13,5Z" style="fill:rgb(237,106,90);fill-rule:nonzero;"/>
                </g>
            </g>
        </g>
    </g>
</svg>
